# xmcd
#
# Track frame offsets:
# 150
# 17567
# 37413
# 56897
# 79537
# 98084
# 121453
# 143803
# 161016
# 183580
# 199727
# 222122
# 247740
# 264794
# 283398
# 300198
# 325506
#
# Disc length: 4609 seconds
#
# Revision: 0
# Processed by: cddbd v1.4PL0 Copyright (c) Steve Scherf et al.
# Submitted via: Audion 3.0.2 (http://www.panic.com/audion/)
#
DISCID=e811ff11
DTITLE=sdfds - dfds
DYEAR=1900
DGENRE=
TTITLE0=k
TTITLE1=k
TTITLE2=k
TTITLE3=k
TTITLE4=k
TTITLE5=k
TTITLE6=k
TTITLE7=kk
TTITLE8=k
TTITLE9=k
TTITLE10=kk
TTITLE11=k
TTITLE12=k
TTITLE13=kk
TTITLE14=k
TTITLE15=k
TTITLE16=k
EXTD=
EXTT0=
EXTT1=
EXTT2=
EXTT3=
EXTT4=
EXTT5=
EXTT6=
EXTT7=
EXTT8=
EXTT9=
EXTT10=
EXTT11=
EXTT12=
EXTT13=
EXTT14=
EXTT15=
EXTT16=
PLAYORDER=
